<svg width="223" height="224" viewBox="0 0 223 224" fill="none" xmlns="http://www.w3.org/2000/svg">
<circle cx="55" cy="56" r="47.5" stroke="#EAECF0"/>
<circle cx="55" cy="56" r="47.5" stroke="#EAECF0"/>
<circle cx="55" cy="56" r="71.5" stroke="#EAECF0"/>
<circle cx="55" cy="56" r="95.5" stroke="#EAECF099"/>
<circle cx="55" cy="56" r="119.5" stroke="#EAECF077"/>
<circle cx="55" cy="56" r="143.5" stroke="#EAECF055"/>
<g filter="url(#filter0_d_606_17640)">
<path d="M66 56H62L59 65L53 47L50 56H46" stroke="#344054" stroke-width="2" stroke-linecap="round" stroke-linejoin="round"/>
<path d="M32.5 42C32.5 36.7533 36.7533 32.5 42 32.5H70C75.2467 32.5 79.5 36.7533 79.5 42V70C79.5 75.2467 75.2467 79.5 70 79.5H42C36.7533 79.5 32.5 75.2467 32.5 70V42Z" stroke="#EAECF0" shape-rendering="crispEdges"/>
</g>
<defs>
<filter id="filter0_d_606_17640" x="30" y="31" width="52" height="52" filterUnits="userSpaceOnUse" color-interpolation-filters="sRGB">
<feFlood flood-opacity="0" result="BackgroundImageFix"/>
<feColorMatrix in="SourceAlpha" type="matrix" values="0 0 0 0 0 0 0 0 0 0 0 0 0 0 0 0 0 0 127 0" result="hardAlpha"/>
<feOffset dy="1"/>
<feGaussianBlur stdDeviation="1"/>
<feComposite in2="hardAlpha" operator="out"/>
<feColorMatrix type="matrix" values="0 0 0 0 0.0627451 0 0 0 0 0.0941176 0 0 0 0 0.156863 0 0 0 0.05 0"/>
<feBlend mode="normal" in2="BackgroundImageFix" result="effect1_dropShadow_606_17640"/>
<feBlend mode="normal" in="SourceGraphic" in2="effect1_dropShadow_606_17640" result="shape"/>
</filter>
</defs>
</svg>

