<svg width="216" height="216" viewBox="0 0 216 216" fill="none" xmlns="http://www.w3.org/2000/svg">
<mask id="mask0_594_2749" style="mask-type:alpha" maskUnits="userSpaceOnUse" x="-120" y="-120" width="336" height="336">
<rect width="336" height="336" transform="translate(-120 -120)" fill="url(#paint0_radial_594_2749)"/>
</mask>
<g mask="url(#mask0_594_2749)">
<circle cx="48" cy="48" r="47.5" stroke="#1F242F"/>
<circle cx="48" cy="48" r="47.5" stroke="#1F242F"/>
<circle cx="48" cy="48" r="71.5" stroke="#1F242F"/>
<circle cx="48" cy="48" r="95.5" stroke="#1F242F"/>
<circle cx="48" cy="48" r="119.5" stroke="#1F242F"/>
<circle cx="48" cy="48" r="143.5" stroke="#1F242F"/>
<circle cx="48" cy="48" r="167.5" stroke="#1F242F"/>
</g>
<g filter="url(#filter0_d_594_2749)">
<path d="M43.5 47H40.6C40.0399 47 39.7599 47 39.546 47.109C39.3578 47.2049 39.2049 47.3578 39.109 47.546C39 47.7599 39 48.0399 39 48.6V57M52.5 47H55.4C55.9601 47 56.2401 47 56.454 47.109C56.6422 47.2049 56.7951 47.3578 56.891 47.546C57 47.7599 57 48.0399 57 48.6V57M52.5 57V42.2C52.5 41.0799 52.5 40.5198 52.282 40.092C52.0903 39.7157 51.7843 39.4097 51.408 39.218C50.9802 39 50.4201 39 49.3 39H46.7C45.5799 39 45.0198 39 44.592 39.218C44.2157 39.4097 43.9097 39.7157 43.718 40.092C43.5 40.5198 43.5 41.0799 43.5 42.2V57M58 57H38M47 43H49M47 47H49M47 51H49" stroke="#CECFD2" stroke-width="2" stroke-linecap="round" stroke-linejoin="round"/>
<path d="M24.5 34C24.5 28.7533 28.7533 24.5 34 24.5H62C67.2467 24.5 71.5 28.7533 71.5 34V62C71.5 67.2467 67.2467 71.5 62 71.5H34C28.7533 71.5 24.5 67.2467 24.5 62V34Z" stroke="#333741" shape-rendering="smooth"/>
</g>
<defs>
<filter id="filter0_d_594_2749" x="22" y="23" width="52" height="52" filterUnits="userSpaceOnUse" color-interpolation-filters="sRGB">
<feFlood flood-opacity="0" result="BackgroundImageFix"/>
<feColorMatrix in="SourceAlpha" type="matrix" values="0 0 0 0 0 0 0 0 0 0 0 0 0 0 0 0 0 0 127 0" result="hardAlpha"/>
<feOffset dy="1"/>
<feGaussianBlur stdDeviation="1"/>
<feComposite in2="hardAlpha" operator="out"/>
<feColorMatrix type="matrix" values="0 0 0 0 0.0627451 0 0 0 0 0.0941176 0 0 0 0 0.156863 0 0 0 0.05 0"/>
<feBlend mode="normal" in2="BackgroundImageFix" result="effect1_dropShadow_594_2749"/>
<feBlend mode="normal" in="SourceGraphic" in2="effect1_dropShadow_594_2749" result="shape"/>
</filter>
<radialGradient id="paint0_radial_594_2749" cx="0" cy="0" r="1" gradientUnits="userSpaceOnUse" gradientTransform="translate(168 168) rotate(90) scale(168 168)">
<stop/>
<stop offset="1" stop-opacity="0"/>
</radialGradient>
</defs>
</svg>
