<svg width="182" height="40" viewBox="0 0 182 40" fill="none" xmlns="http://www.w3.org/2000/svg">
<path d="M25.4366 0H19.5125C19.1617 0 18.9569 0.366011 19.1594 0.630945L32.6506 18.2787C32.863 18.5566 32.8621 18.9285 32.6482 19.2055L17.0813 39.3675C16.8769 39.6323 17.0815 40 17.4332 40H23.355C23.6344 40 23.8965 39.8752 24.0588 39.6649L39.8554 19.2055C40.0693 18.9285 40.0702 18.5566 39.8577 18.2787L26.1427 0.338108C25.9806 0.126064 25.7173 0 25.4366 0Z" fill="#71C7F9"/>
<path d="M13.6645 0H2.70342C2.35263 0 2.14781 0.366011 2.35034 0.630945L15.8415 18.2787C16.0539 18.5566 16.053 18.9285 15.8391 19.2055L0.272211 39.3675C0.0677998 39.6323 0.272398 40 0.624113 40H11.583C11.8623 40 12.1244 39.8752 12.2868 39.6649L28.0833 19.2055C28.2972 18.9285 28.2982 18.5566 28.0857 18.2787L14.3707 0.338108C14.2086 0.126064 13.9453 0 13.6645 0Z" fill="#34AFF7"/>
<path d="M44 10.7868C44 12.3505 44.3426 13.8263 45.0278 15.2143C45.7306 16.5848 46.7408 17.6916 48.0586 18.535C49.3939 19.3783 50.9488 19.8 52.7233 19.8C54.5154 19.8 56.0703 19.3783 57.388 18.535C58.7057 17.6916 59.7072 16.5848 60.3924 15.2143C61.0952 13.8263 61.4466 12.3505 61.4466 10.7868C61.4466 10.2773 61.4114 9.82049 61.3411 9.41639L61.2884 9.10013H52.328V12.8161H56.9927C56.6413 13.7297 56.0878 14.4764 55.3324 15.0562C54.5944 15.6184 53.7247 15.8996 52.7233 15.8996C51.7745 15.8996 50.9575 15.6624 50.2723 15.188C49.5871 14.7136 49.06 14.0899 48.6911 13.3168C48.3397 12.5262 48.164 11.6829 48.164 10.7868C48.164 9.90833 48.3397 9.07378 48.6911 8.28315C49.0425 7.49252 49.5608 6.86002 50.246 6.38564C50.9488 5.89369 51.7745 5.64772 52.7233 5.64772C53.4963 5.64772 54.1991 5.82341 54.8316 6.17481C55.4817 6.5262 56.0176 7.00936 56.4392 7.62429L56.571 7.80877L61.0249 7.72971L60.8404 7.28169C60.2079 5.63015 59.1713 4.30365 57.7306 3.30218C56.2899 2.30072 54.6208 1.79999 52.7233 1.79999C50.9488 1.79999 49.3939 2.22166 48.0586 3.06499C46.7408 3.90833 45.7306 5.01521 45.0278 6.38564C44.3426 7.75606 44 9.22312 44 10.7868Z" fill="#2D3648"/>
<path d="M64.1909 10.7868C64.1909 12.3505 64.5335 13.8263 65.2187 15.2143C65.9215 16.5848 66.9318 17.6916 68.2495 18.535C69.5848 19.3783 71.1397 19.8 72.9142 19.8C74.6887 19.8 76.2348 19.3783 77.5525 18.535C78.8878 17.6916 79.8981 16.5848 80.5833 15.2143C81.2861 13.8263 81.6375 12.3505 81.6375 10.7868C81.6375 9.22312 81.2861 7.75606 80.5833 6.38564C79.8981 5.01521 78.8878 3.90833 77.5525 3.06499C76.2348 2.22166 74.6887 1.79999 72.9142 1.79999C71.1397 1.79999 69.5848 2.22166 68.2495 3.06499C66.9318 3.90833 65.9215 5.01521 65.2187 6.38564C64.5335 7.75606 64.1909 9.22312 64.1909 10.7868ZM77.4998 10.7868C77.4998 11.6829 77.3154 12.5262 76.9464 13.3168C76.595 14.0899 76.0679 14.7136 75.3651 15.188C74.6799 15.6624 73.8629 15.8996 72.9142 15.8996C71.9654 15.8996 71.1484 15.6624 70.4632 15.188C69.778 14.7136 69.2509 14.0899 68.882 13.3168C68.5306 12.5262 68.3549 11.6829 68.3549 10.7868C68.3549 9.90833 68.5306 9.07378 68.882 8.28315C69.2334 7.49252 69.7517 6.86002 70.4369 6.38564C71.1397 5.89369 71.9654 5.64772 72.9142 5.64772C73.8629 5.64772 74.6799 5.89369 75.3651 6.38564C76.0679 6.86002 76.595 7.49252 76.9464 8.28315C77.3154 9.07378 77.4998 9.90833 77.4998 10.7868Z" fill="#2D3648"/>
<path d="M85.1988 19.4574H89.2047V8.65211L98.5341 19.4574H102.013V2.14259H98.0334V12.9215L88.6512 2.14259H85.1988V19.4574Z" fill="#2D3648"/>
<path d="M106.368 19.4574H114.775C116.514 19.4574 118.043 19.0621 119.36 18.2714C120.696 17.4808 121.715 16.4266 122.417 15.1089C123.138 13.7736 123.498 12.3329 123.498 10.7868C123.498 9.24069 123.138 7.80877 122.417 6.49106C121.715 5.17334 120.704 4.11917 119.387 3.32854C118.069 2.53791 116.532 2.14259 114.775 2.14259H106.368V19.4574ZM110.374 15.7678V5.8322H114.775C115.706 5.8322 116.514 6.0606 117.199 6.51741C117.902 6.97422 118.438 7.58915 118.807 8.36221C119.176 9.1177 119.36 9.9259 119.36 10.7868C119.36 11.6653 119.176 12.4911 118.807 13.2641C118.438 14.0196 117.902 14.6258 117.199 15.0826C116.514 15.5394 115.706 15.7678 114.775 15.7678H110.374Z" fill="#2D3648"/>
<path d="M126.231 10.7868C126.231 12.3505 126.573 13.8263 127.258 15.2143C127.961 16.5848 128.971 17.6916 130.289 18.535C131.624 19.3783 133.179 19.8 134.954 19.8C136.728 19.8 138.275 19.3783 139.592 18.535C140.928 17.6916 141.938 16.5848 142.623 15.2143C143.326 13.8263 143.677 12.3505 143.677 10.7868C143.677 9.22312 143.326 7.75606 142.623 6.38564C141.938 5.01521 140.928 3.90833 139.592 3.06499C138.275 2.22166 136.728 1.79999 134.954 1.79999C133.179 1.79999 131.624 2.22166 130.289 3.06499C128.971 3.90833 127.961 5.01521 127.258 6.38564C126.573 7.75606 126.231 9.22312 126.231 10.7868ZM139.54 10.7868C139.54 11.6829 139.355 12.5262 138.986 13.3168C138.635 14.0899 138.108 14.7136 137.405 15.188C136.72 15.6624 135.903 15.8996 134.954 15.8996C134.005 15.8996 133.188 15.6624 132.503 15.188C131.818 14.7136 131.291 14.0899 130.922 13.3168C130.57 12.5262 130.395 11.6829 130.395 10.7868C130.395 9.90833 130.57 9.07378 130.922 8.28315C131.273 7.49252 131.791 6.86002 132.477 6.38564C133.179 5.89369 134.005 5.64772 134.954 5.64772C135.903 5.64772 136.72 5.89369 137.405 6.38564C138.108 6.86002 138.635 7.49252 138.986 8.28315C139.355 9.07378 139.54 9.90833 139.54 10.7868Z" fill="#2D3648"/>
<path d="M147.239 19.4574H160.837V15.7678H151.244V2.14259H147.239V19.4574Z" fill="#2D3648"/>
<path d="M166.851 19.4574L168.485 15.2143H175.732L177.393 19.4574H181.688L174.836 2.14259H169.486L162.608 19.4574H166.851ZM172.069 5.99032L174.362 11.5247H169.855L172.069 5.99032Z" fill="#2D3648"/>
<path d="M45.3865 36.2V27.198H46.8425V36.2H45.3865Z" fill="#2D3648"/>
<path d="M49.1533 36.2V27.198H50.5254L56.1674 33.89V27.198H57.6233V36.2H56.2514L50.6093 29.494V36.2H49.1533Z" fill="#2D3648"/>
<path d="M59.4999 33.736H60.9559L60.9839 33.834C61.0866 34.254 61.4039 34.562 61.9359 34.758C62.4679 34.954 63.0326 35.052 63.6299 35.052C64.2926 35.052 64.8806 34.9353 65.3939 34.702C65.9072 34.4687 66.1639 34.0953 66.1639 33.582C66.1639 33.0873 65.8652 32.728 65.2679 32.504C64.8386 32.3453 64.2739 32.266 63.5739 32.266C62.4259 32.266 61.4879 32.1027 60.7599 31.776C60.0412 31.4493 59.6819 30.782 59.6819 29.774C59.6819 28.822 60.0319 28.1267 60.7319 27.688C61.4412 27.24 62.3139 27.016 63.3499 27.016C64.3486 27.016 65.2492 27.212 66.0519 27.604C66.8546 27.996 67.3119 28.626 67.4239 29.494L67.4519 29.648H65.9959L65.9679 29.55C65.8839 29.13 65.5899 28.8267 65.0859 28.64C64.5819 28.444 64.0406 28.346 63.4619 28.346C62.8459 28.346 62.3046 28.458 61.8379 28.682C61.3712 28.8967 61.1379 29.242 61.1379 29.718C61.1379 30.1753 61.4086 30.5067 61.9499 30.712C62.3419 30.8613 62.8599 30.936 63.5039 30.936C64.6986 30.936 65.6832 31.1087 66.4579 31.454C67.2326 31.79 67.6199 32.476 67.6199 33.512C67.6199 34.5013 67.2466 35.2293 66.4999 35.696C65.7532 36.1533 64.8432 36.382 63.7699 36.382C62.7432 36.382 61.8099 36.186 60.9699 35.794C60.1392 35.402 59.6586 34.7673 59.5279 33.89L59.4999 33.736Z" fill="#2D3648"/>
<path d="M72.1222 36.2V28.528H68.6082V27.198H77.0782V28.528H73.5782V36.2H72.1222Z" fill="#2D3648"/>
<path d="M78.788 36.2V27.198H80.244V36.2H78.788Z" fill="#2D3648"/>
<path d="M85.4528 36.2V28.528H81.9388V27.198H90.4088V28.528H86.9088V36.2H85.4528Z" fill="#2D3648"/>
<path d="M92.1186 31.888V27.198H93.5746V31.888C93.5746 32.4107 93.6726 32.9053 93.8686 33.372C94.0739 33.8387 94.3726 34.2167 94.7646 34.506C95.1659 34.7953 95.6373 34.94 96.1786 34.94C96.7199 34.94 97.1866 34.7953 97.5786 34.506C97.9799 34.2167 98.2786 33.8387 98.4746 33.372C98.6799 32.896 98.7826 32.4013 98.7826 31.888V27.198H100.239V31.888C100.239 32.6533 100.08 33.3813 99.7626 34.072C99.4453 34.7533 98.9786 35.3087 98.3626 35.738C97.7466 36.1673 97.0186 36.382 96.1786 36.382C95.3386 36.382 94.6106 36.1673 93.9946 35.738C93.3786 35.3087 92.9119 34.7533 92.5946 34.072C92.2773 33.3813 92.1186 32.6533 92.1186 31.888Z" fill="#2D3648"/>
<path d="M105.442 36.2V28.528H101.928V27.198H110.398V28.528H106.898V36.2H105.442Z" fill="#2D3648"/>
<path d="M112.107 36.2V27.198H113.563V36.2H112.107Z" fill="#2D3648"/>
<path d="M117.484 27.674C118.156 27.2353 118.94 27.016 119.836 27.016C120.742 27.016 121.526 27.2353 122.188 27.674C122.86 28.1033 123.374 28.6773 123.728 29.396C124.083 30.1053 124.26 30.8753 124.26 31.706C124.26 32.5273 124.083 33.2973 123.728 34.016C123.374 34.7253 122.86 35.2993 122.188 35.738C121.526 36.1673 120.742 36.382 119.836 36.382C118.94 36.382 118.156 36.1673 117.484 35.738C116.822 35.2993 116.313 34.7253 115.958 34.016C115.613 33.2973 115.44 32.5273 115.44 31.706C115.44 30.8847 115.613 30.1147 115.958 29.396C116.313 28.6773 116.822 28.1033 117.484 27.674ZM121.376 28.892C120.947 28.584 120.434 28.43 119.836 28.43C119.248 28.43 118.74 28.584 118.31 28.892C117.881 29.2 117.554 29.606 117.33 30.11C117.106 30.6047 116.994 31.132 116.994 31.692C116.994 32.252 117.106 32.7793 117.33 33.274C117.554 33.7687 117.881 34.17 118.31 34.478C118.74 34.786 119.248 34.94 119.836 34.94C120.424 34.94 120.938 34.7907 121.376 34.492C121.815 34.184 122.146 33.7827 122.37 33.288C122.604 32.7933 122.72 32.266 122.72 31.706C122.72 31.1367 122.604 30.6047 122.37 30.11C122.146 29.606 121.815 29.2 121.376 28.892Z" fill="#2D3648"/>
<path d="M126.149 36.2V27.198H127.521L133.163 33.89V27.198H134.619V36.2H133.247L127.605 29.494V36.2H126.149Z" fill="#2D3648"/>
<path d="M137.686 36.2H136.146L140.066 27.128H141.494L145.554 36.2H143.986L142.95 33.862H138.694L137.686 36.2ZM140.794 28.794L139.198 32.546H142.474L140.794 28.794Z" fill="#2D3648"/>
<path d="M147.095 36.2V27.198H148.551V34.87H153.815V36.2H147.095Z" fill="#2D3648"/>
</svg>
