<svg width="49" height="48" viewBox="0 0 49 48" fill="none" xmlns="http://www.w3.org/2000/svg">
<path d="M0.875 19.2C0.875 15.8335 0.875292 13.3312 1.03724 11.349C1.19884 9.37113 1.51951 7.94416 2.14205 6.72236C3.25658 4.53498 5.03498 2.75658 7.22236 1.64205C8.44416 1.01951 9.87113 0.69884 11.849 0.537245C13.8312 0.375292 16.3335 0.375 19.7 0.375H29.3C32.6665 0.375 35.1688 0.375292 37.151 0.537245C39.1289 0.69884 40.5558 1.01951 41.7776 1.64205C43.965 2.75658 45.7434 4.53498 46.8579 6.72236C47.4805 7.94416 47.8012 9.37113 47.9628 11.349C48.1247 13.3312 48.125 15.8335 48.125 19.2V28.8C48.125 32.1665 48.1247 34.6688 47.9628 36.651C47.8012 38.6289 47.4805 40.0558 46.858 41.2776C45.7434 43.465 43.965 45.2434 41.7776 46.3579C40.5558 46.9805 39.1289 47.3012 37.151 47.4628C35.1688 47.6247 32.6665 47.625 29.3 47.625H19.7C16.3335 47.625 13.8312 47.6247 11.849 47.4628C9.87113 47.3012 8.44416 46.9805 7.22236 46.358C5.03498 45.2434 3.25658 43.465 2.14205 41.2776C1.51951 40.0558 1.19884 38.6289 1.03724 36.651C0.875292 34.6688 0.875 32.1665 0.875 28.8V19.2Z" fill="white"/>
<path fill-rule="evenodd" clipRule="evenodd" d="M14.2979 10.9093C13.2038 10.901 12.5194 11.1915 12.1055 11.6054C11.6915 12.0194 11.4011 12.7038 11.4093 13.7979C11.4175 14.8991 11.7336 16.2941 12.3986 17.9094C12.8619 19.0343 13.4805 20.2325 14.2429 21.4691C15.3264 20.0884 16.5439 18.7134 17.8786 17.3787C19.2133 16.044 20.5884 14.8264 21.9692 13.7429C20.7326 12.9805 19.5344 12.3618 18.4094 11.8986C16.7942 11.2335 15.3992 10.9175 14.2979 10.9093ZM24.5002 11.9098C22.7928 10.7756 21.1096 9.86437 19.5171 9.20864C17.6911 8.45677 15.9152 8.01221 14.3197 8.00024C12.7171 7.98822 11.1789 8.41789 10.0484 9.5484C8.91789 10.6789 8.48822 12.217 8.50024 13.8197C8.51221 15.4151 8.95677 17.191 9.70865 19.017C10.3644 20.6094 11.2756 22.2927 12.4098 24C11.2757 25.7074 10.3644 27.3906 9.70872 28.983C8.95684 30.809 8.51228 32.5849 8.50031 34.1803C8.48829 35.783 8.91795 37.3211 10.0485 38.4516C11.179 39.5821 12.7171 40.0118 14.3198 39.9998C15.9152 39.9878 17.6911 39.5432 19.5171 38.7914C21.1096 38.1356 22.7928 37.2244 24.5002 36.0902C26.2074 37.2243 27.8905 38.1354 29.4829 38.7911C31.3089 39.5429 33.0848 39.9875 34.6802 39.9995C36.2829 40.0115 37.821 39.5818 38.9515 38.4513C40.082 37.3208 40.5117 35.7827 40.4997 34.18C40.4877 32.5846 40.0432 30.8087 39.2913 28.9827C38.6356 27.3904 37.7245 25.7073 36.5904 24.0001C37.7245 22.2928 38.6357 20.6096 39.2914 19.0173C40.0432 17.1913 40.4878 15.4154 40.4998 13.82C40.5118 12.2173 40.0821 10.6792 38.9516 9.54868C37.8211 8.41818 36.2829 7.98851 34.6803 8.00053C33.0848 8.0125 31.3089 8.45706 29.4829 9.20893C27.8906 9.8646 26.2075 10.7758 24.5002 11.9098ZM24.5002 15.4686C22.98 16.6038 21.4386 17.9328 19.9356 19.4358C18.4328 20.9386 17.1038 22.4799 15.9687 24C17.1037 25.5201 18.4327 27.0614 19.9356 28.5642C21.4385 30.0672 22.98 31.3963 24.5002 32.5314C26.0203 31.3963 27.5616 30.0674 29.0644 28.5645C30.5674 27.0616 31.8964 25.5202 33.0316 24C31.8964 22.4798 30.5673 20.9384 29.0644 19.4355C27.5615 17.9327 26.0203 16.6037 24.5002 15.4686ZM34.7573 21.469C33.6738 20.0883 32.4562 18.7132 31.1214 17.3784C29.7868 16.0439 28.4118 14.8264 27.0312 13.743C28.2676 12.9807 29.4657 12.3621 30.5906 11.8989C32.2058 11.2338 33.6008 10.9178 34.7021 10.9095C35.7962 10.9013 36.4806 11.1918 36.8945 11.6057C37.3085 12.0196 37.5989 12.7041 37.5907 13.7981C37.5825 14.8994 37.2664 16.2944 36.6014 17.9096C36.1382 19.0345 35.5196 20.2326 34.7573 21.469ZM34.7573 26.5311C33.6738 27.9118 32.4562 29.2869 31.1215 30.6216C29.7869 31.9562 28.4119 33.1737 27.0312 34.2571C28.2676 35.0194 29.4657 35.6379 30.5905 36.1011C32.2057 36.7662 33.6008 37.0822 34.702 37.0905C35.7961 37.0987 36.4805 36.8082 36.8945 36.3943C37.3084 35.9804 37.5989 35.2959 37.5907 34.2019C37.5824 33.1006 37.2664 31.7056 36.6013 30.0904C36.1381 28.9655 35.5195 27.7675 34.7573 26.5311ZM21.9692 34.2571C20.5884 33.1736 19.2133 31.956 17.8785 30.6213C16.5439 29.2867 15.3264 27.9116 14.2429 26.531C13.4806 27.7675 12.8619 28.9657 12.3987 30.0906C11.7336 31.7059 11.4176 33.1009 11.4093 34.2021C11.4011 35.2962 11.6916 35.9806 12.1055 36.3946C12.5195 36.8085 13.2039 37.099 14.298 37.0907C15.3992 37.0825 16.7943 36.7665 18.4095 36.1014C19.5344 35.6382 20.7326 35.0195 21.9692 34.2571Z" fill="#101828"/>
<path d="M0.875 19.2C0.875 15.8335 0.875292 13.3312 1.03724 11.349C1.19884 9.37113 1.51951 7.94416 2.14205 6.72236C3.25658 4.53498 5.03498 2.75658 7.22236 1.64205C8.44416 1.01951 9.87113 0.69884 11.849 0.537245C13.8312 0.375292 16.3335 0.375 19.7 0.375H29.3C32.6665 0.375 35.1688 0.375292 37.151 0.537245C39.1289 0.69884 40.5558 1.01951 41.7776 1.64205C43.965 2.75658 45.7434 4.53498 46.8579 6.72236C47.4805 7.94416 47.8012 9.37113 47.9628 11.349C48.1247 13.3312 48.125 15.8335 48.125 19.2V28.8C48.125 32.1665 48.1247 34.6688 47.9628 36.651C47.8012 38.6289 47.4805 40.0558 46.858 41.2776C45.7434 43.465 43.965 45.2434 41.7776 46.3579C40.5558 46.9805 39.1289 47.3012 37.151 47.4628C35.1688 47.6247 32.6665 47.625 29.3 47.625H19.7C16.3335 47.625 13.8312 47.6247 11.849 47.4628C9.87113 47.3012 8.44416 46.9805 7.22236 46.358C5.03498 45.2434 3.25658 43.465 2.14205 41.2776C1.51951 40.0558 1.19884 38.6289 1.03724 36.651C0.875292 34.6688 0.875 32.1665 0.875 28.8V19.2Z" stroke="#D0D5DD" stroke-width="0.75"/>
</svg>
