<svg width="416" height="280" viewBox="0 0 416 280" fill="none" xmlns="http://www.w3.org/2000/svg">
<circle cx="208" cy="72" r="47.5" stroke="#1F242F"/>
<circle cx="208" cy="72" r="79.5" stroke="#1F242F"/>
<circle cx="208" cy="72" r="111.5" stroke="#1F242F"/>
<circle cx="208" cy="72" r="143.5" stroke="#1F242F99"/>
<circle cx="208" cy="72" r="175.5" stroke="#1F242F77"/>
<circle cx="208" cy="72" r="207.5" stroke="#1F242F55"/>
<g filter="url(#filter0_d_594_2749)">
<path d="M218 72H214L211 81L205 63L202 72H198" stroke="#CECFD2" stroke-width="2" stroke-linecap="round" stroke-linejoin="round"/>
<path d="M184.5 58C184.5 52.7533 188.753 48.5 194 48.5H222C227.247 48.5 231.5 52.7533 231.5 58V86C231.5 91.2467 227.247 95.5 222 95.5H194C188.753 95.5 184.5 91.2467 184.5 86V58Z" stroke="#1F242F" shape-rendering="crispEdges"/>
</g>
<defs>
<filter id="filter0_d_594_2749" x="182" y="47" width="52" height="52" filterUnits="userSpaceOnUse" color-interpolation-filters="sRGB">
<feFlood flood-opacity="0" result="BackgroundImageFix"/>
<feColorMatrix in="SourceAlpha" type="matrix" values="0 0 0 0 0 0 0 0 0 0 0 0 0 0 0 0 0 0 127 0" result="hardAlpha"/>
<feOffset dy="1"/>
<feGaussianBlur stdDeviation="1"/>
<feComposite in2="hardAlpha" operator="out"/>
<feColorMatrix type="matrix" values="0 0 0 0 0.0627451 0 0 0 0 0.0941176 0 0 0 0 0.156863 0 0 0 0.05 0"/>
<feBlend mode="normal" in2="BackgroundImageFix" result="effect1_dropShadow_594_2749"/>
<feBlend mode="normal" in="SourceGraphic" in2="effect1_dropShadow_594_2749" result="shape"/>
</filter>
</defs>
</svg>
