<svg width="165" height="24" viewBox="0 0 165 24" fill="none" xmlns="http://www.w3.org/2000/svg">
<path d="M15.1986 0H11.6589C11.4493 0 11.3269 0.219607 11.4479 0.378567L19.509 10.9672C19.6359 11.134 19.6354 11.3571 19.5076 11.5233L10.2062 23.6205C10.0841 23.7794 10.2063 24 10.4165 24H13.9548C14.1217 24 14.2784 23.9251 14.3754 23.799L23.8139 11.5233C23.9417 11.3571 23.9423 11.134 23.8153 10.9672L15.6205 0.202865C15.5236 0.0756386 15.3663 0 15.1986 0Z" fill="#71C7F9"/>
<path d="M8.1646 0H1.61525C1.40565 0 1.28327 0.219607 1.40429 0.378567L9.46533 10.9672C9.59229 11.134 9.59173 11.3571 9.46393 11.5233L0.162587 23.6205C0.0404497 23.7794 0.162698 24 0.372851 24H6.92085C7.08775 24 7.24438 23.9251 7.34138 23.799L16.7799 11.5233C16.9077 11.3571 16.9083 11.134 16.7813 10.9672L8.58653 0.202865C8.48967 0.0756387 8.33235 0 8.1646 0Z" fill="#34AFF7"/>
<path d="M27.8837 11.9868C27.8837 13.5505 28.2248 15.0264 28.9072 16.4143C29.6071 17.7848 30.6131 18.8917 31.9254 19.735C33.2551 20.5783 34.8036 21 36.5707 21C38.3554 21 39.9038 20.5783 41.216 19.735C42.5283 18.8917 43.5256 17.7848 44.208 16.4143C44.9078 15.0264 45.2577 13.5505 45.2577 11.9868C45.2577 11.4773 45.2228 11.0205 45.1528 10.6164L45.1003 10.3001H36.177V14.0161H40.8224C40.4724 14.9297 39.9213 15.6764 39.1689 16.2562C38.4341 16.8184 37.568 17.0996 36.5707 17.0996C35.6259 17.0996 34.8123 16.8624 34.1299 16.388C33.4476 15.9136 32.9227 15.2899 32.5552 14.5168C32.2053 13.7262 32.0304 12.8829 32.0304 11.9868C32.0304 11.1083 32.2053 10.2738 32.5552 9.48316C32.9052 8.69253 33.4213 8.06003 34.1037 7.58565C34.8036 7.0937 35.6259 6.84773 36.5707 6.84773C37.3406 6.84773 38.0404 7.02343 38.6703 7.37482C39.3177 7.72621 39.8513 8.20937 40.2712 8.8243L40.4025 9.00878L44.8378 8.92972L44.6541 8.4817C44.0242 6.83016 42.9919 5.50366 41.5572 4.5022C40.1225 3.50073 38.4603 3 36.5707 3C34.8036 3 33.2551 3.42167 31.9254 4.26501C30.6131 5.10835 29.6071 6.21523 28.9072 7.58565C28.2248 8.95608 27.8837 10.4231 27.8837 11.9868Z" fill="#344054"/>
<path d="M47.9907 11.9868C47.9907 13.5505 48.3319 15.0264 49.0142 16.4143C49.7141 17.7848 50.7202 18.8917 52.0324 19.735C53.3621 20.5783 54.9106 21 56.6777 21C58.4449 21 59.9846 20.5783 61.2968 19.735C62.6266 18.8917 63.6326 17.7848 64.315 16.4143C65.0148 15.0264 65.3648 13.5505 65.3648 11.9868C65.3648 10.4231 65.0148 8.95608 64.315 7.58565C63.6326 6.21523 62.6266 5.10835 61.2968 4.26501C59.9846 3.42167 58.4449 3 56.6777 3C54.9106 3 53.3621 3.42167 52.0324 4.26501C50.7202 5.10835 49.7141 6.21523 49.0142 7.58565C48.3319 8.95608 47.9907 10.4231 47.9907 11.9868ZM61.2443 11.9868C61.2443 12.8829 61.0606 13.7262 60.6932 14.5168C60.3433 15.2899 59.8184 15.9136 59.1185 16.388C58.4361 16.8624 57.6225 17.0996 56.6777 17.0996C55.7329 17.0996 54.9193 16.8624 54.237 16.388C53.5546 15.9136 53.0297 15.2899 52.6623 14.5168C52.3123 13.7262 52.1374 12.8829 52.1374 11.9868C52.1374 11.1083 52.3123 10.2738 52.6623 9.48316C53.0122 8.69253 53.5284 8.06003 54.2107 7.58565C54.9106 7.0937 55.7329 6.84773 56.6777 6.84773C57.6225 6.84773 58.4361 7.0937 59.1185 7.58565C59.8184 8.06003 60.3433 8.69253 60.6932 9.48316C61.0606 10.2738 61.2443 11.1083 61.2443 11.9868Z" fill="#344054"/>
<path d="M68.9113 20.6574H72.9005V9.85212L82.1912 20.6574H85.6555V3.34261H81.6925V14.1215L72.3494 3.34261H68.9113V20.6574Z" fill="#344054"/>
<path d="M89.9923 20.6574H98.3644C100.097 20.6574 101.619 20.2621 102.931 19.4715C104.261 18.6808 105.276 17.6266 105.975 16.3089C106.693 14.9736 107.051 13.5329 107.051 11.9868C107.051 10.4407 106.693 9.00878 105.975 7.69107C105.276 6.37335 104.269 5.31918 102.957 4.52855C101.645 3.73792 100.114 3.34261 98.3644 3.34261H89.9923V20.6574ZM93.9815 16.9678V7.03221H98.3644C99.2917 7.03221 100.097 7.26061 100.779 7.71742C101.479 8.17423 102.012 8.78917 102.38 9.56222C102.747 10.3177 102.931 11.1259 102.931 11.9868C102.931 12.8653 102.747 13.6911 102.38 14.4641C102.012 15.2196 101.479 15.8258 100.779 16.2826C100.097 16.7394 99.2917 16.9678 98.3644 16.9678H93.9815Z" fill="#344054"/>
<path d="M109.773 11.9868C109.773 13.5505 110.114 15.0264 110.796 16.4143C111.496 17.7848 112.502 18.8917 113.814 19.735C115.144 20.5783 116.693 21 118.46 21C120.227 21 121.767 20.5783 123.079 19.735C124.409 18.8917 125.415 17.7848 126.097 16.4143C126.797 15.0264 127.147 13.5505 127.147 11.9868C127.147 10.4231 126.797 8.95608 126.097 7.58565C125.415 6.21523 124.409 5.10835 123.079 4.26501C121.767 3.42167 120.227 3 118.46 3C116.693 3 115.144 3.42167 113.814 4.26501C112.502 5.10835 111.496 6.21523 110.796 7.58565C110.114 8.95608 109.773 10.4231 109.773 11.9868ZM123.026 11.9868C123.026 12.8829 122.843 13.7262 122.475 14.5168C122.125 15.2899 121.6 15.9136 120.9 16.388C120.218 16.8624 119.405 17.0996 118.46 17.0996C117.515 17.0996 116.701 16.8624 116.019 16.388C115.337 15.9136 114.812 15.2899 114.444 14.5168C114.094 13.7262 113.919 12.8829 113.919 11.9868C113.919 11.1083 114.094 10.2738 114.444 9.48316C114.794 8.69253 115.31 8.06003 115.993 7.58565C116.693 7.0937 117.515 6.84773 118.46 6.84773C119.405 6.84773 120.218 7.0937 120.9 7.58565C121.6 8.06003 122.125 8.69253 122.475 9.48316C122.843 10.2738 123.026 11.1083 123.026 11.9868Z" fill="#344054"/>
<path d="M130.693 20.6574H144.236V16.9678H134.683V3.34261H130.693V20.6574Z" fill="#344054"/>
<path d="M150.224 20.6574L151.851 16.4143H159.069L160.722 20.6574H165L158.176 3.34261H152.849L145.999 20.6574H150.224ZM155.421 7.19034L157.704 12.7247H153.216L155.421 7.19034Z" fill="#344054"/>
</svg>
